<?xml version="1.0" encoding="UTF-8" standalone="no"?>
<!DOCTYPE svg PUBLIC "-//W3C//DTD SVG 1.1//EN" "http://www.w3.org/Graphics/SVG/1.1/DTD/svg11.dtd">
<svg width="100%" height="100%" viewBox="0 0 32 32" version="1.1" xmlns="http://www.w3.org/2000/svg" xmlns:xlink="http://www.w3.org/1999/xlink" xml:space="preserve" xmlns:serif="http://www.serif.com/" style="fill-rule:evenodd;clip-rule:evenodd;stroke-linecap:round;stroke-linejoin:round;stroke-miterlimit:1.5;">
    <g transform="matrix(0.999391,0.0348812,-0.0348812,0.999391,0.83544,2.73962)">
        <path d="M32.101,26.904L4.956,26.904C3.657,26.904 2.411,26.388 1.492,25.469C0.574,24.551 0.058,23.305 0.058,22.006C0.058,21.982 0.058,21.959 0.058,21.935C0.058,20.636 0.574,19.39 1.492,18.472C2.411,17.553 3.657,17.037 4.956,17.037C13.931,17.037 32.101,17.037 32.101,17.037" style="fill:none;stroke:black;stroke-width:1px;"/>
    </g>
    <g transform="matrix(0.999391,0.0348812,-0.0348812,0.999391,0.832821,2.81466)">
        <path d="M20.386,16.962L20.386,17.986C20.386,18.783 20.069,19.548 19.505,20.111C18.942,20.675 18.177,20.992 17.38,20.992C15.911,20.992 14.147,20.992 12.678,20.992C11.881,20.992 11.116,20.675 10.552,20.111C9.989,19.548 9.672,18.783 9.672,17.986C9.672,17.399 9.672,16.962 9.672,16.962L20.386,16.962Z" style="fill:none;stroke:black;stroke-width:1px;"/>
    </g>
    <g transform="matrix(2.612,0,0,2.612,-19.4317,-4.31959)">
        <path d="M8.161,2.058L9.025,2.058L9.025,5.742L13.657,5.742L13.657,2.058L14.521,2.058L14.521,9.443L13.657,9.443L13.657,6.534L9.025,6.534L9.025,9.368L8.161,9.569L8.161,2.058Z" style="fill-rule:nonzero;"/>
        <path d="M19.244,5.092L17.821,5.092L17.821,9.534L17.029,9.534L17.029,5.092L15.841,5.092L15.841,4.372L17.029,4.372L17.029,2.058L17.821,2.058L17.821,4.372L19.244,4.372L19.244,5.092Z" style="fill-rule:nonzero;"/>
    </g>
</svg>
